<svg xmlns="http://www.w3.org/2000/svg" width="161" height="226" viewBox="0 0 161 226">
  <g id="Union_1" data-name="Union 1" transform="translate(2442 45)" fill="none">
    <path d="M-2405.57,181V103.115A80.591,80.591,0,0,1-2442,35.63,80.565,80.565,0,0,1-2361.5-45,80.565,80.565,0,0,1-2281,35.63a80.591,80.591,0,0,1-36.43,67.485V181Z" stroke="none"/>
    <path d="M -2320.43017578125 177.9996948242188 L -2320.43017578125 103.1153869628906 L -2320.43017578125 101.4961013793945 L -2319.076416015625 100.6074829101563 C -2313.8134765625 97.15245056152344 -2308.970703125 93.05416870117188 -2304.6826171875 88.42654418945313 C -2300.384765625 83.78804016113281 -2296.660888671875 78.63541412353516 -2293.61474609375 73.11179351806641 C -2290.51611328125 67.49341583251953 -2288.125732421875 61.50226211547852 -2286.510009765625 55.30482482910156 C -2284.844482421875 48.91716766357422 -2284 42.29763793945313 -2284 35.63010406494141 C -2284 25.14816665649414 -2286.048828125 14.98141765594482 -2290.08984375 5.412261486053467 C -2292.031982421875 0.8128862977027893 -2294.43603515625 -3.623426198959351 -2297.235107421875 -7.773426055908203 C -2300.00830078125 -11.88467597961426 -2303.19287109375 -15.75080108642578 -2306.700927734375 -19.26439476013184 C -2310.208740234375 -22.77792549133301 -2314.068359375 -25.96767616271973 -2318.1728515625 -28.74505043029785 C -2322.315673828125 -31.54848861694336 -2326.744384765625 -33.95620727539063 -2331.3359375 -35.90136337280273 C -2340.887939453125 -39.94811248779297 -2351.03662109375 -41.9999885559082 -2361.499755859375 -41.9999885559082 C -2371.962890625 -41.9999885559082 -2382.111572265625 -39.94811248779297 -2391.663818359375 -35.90136337280273 C -2396.255126953125 -33.95620727539063 -2400.683837890625 -31.54845809936523 -2404.826904296875 -28.74505043029785 C -2408.93115234375 -25.96767616271973 -2412.791015625 -22.77792549133301 -2416.298828125 -19.26439476013184 C -2419.806884765625 -15.75080108642578 -2422.991455078125 -11.88467597961426 -2425.764404296875 -7.773426055908203 C -2428.563720703125 -3.623426198959351 -2430.9677734375 0.8128862977027893 -2432.909912109375 5.412261486053467 C -2436.950927734375 14.98141765594482 -2438.999755859375 25.14816665649414 -2438.999755859375 35.63010406494141 C -2438.999755859375 42.29763793945313 -2438.1552734375 48.91716766357422 -2436.48974609375 55.30482482910156 C -2434.8740234375 61.50226211547852 -2432.483642578125 67.49341583251953 -2429.385009765625 73.11179351806641 C -2426.3388671875 78.63541412353516 -2422.614990234375 83.78804016113281 -2418.317138671875 88.426513671875 C -2414.029052734375 93.05416870117188 -2409.186279296875 97.15242004394531 -2403.92333984375 100.6074523925781 L -2402.569580078125 101.4960708618164 L -2402.569580078125 103.1153564453125 L -2402.569580078125 177.9996948242188 L -2320.43017578125 177.9996948242188 M -2317.43017578125 180.9996948242188 L -2405.569580078125 180.9996948242188 L -2405.569580078125 103.1153564453125 C -2427.50927734375 88.71285247802734 -2441.999755859375 63.86685562133789 -2441.999755859375 35.63010406494141 C -2441.999755859375 -8.900738716125488 -2405.958740234375 -44.9999885559082 -2361.499755859375 -44.9999885559082 C -2317.041015625 -44.9999885559082 -2281 -8.900738716125488 -2281 35.63010406494141 C -2281 63.86685562133789 -2295.490478515625 88.71285247802734 -2317.43017578125 103.1153869628906 L -2317.43017578125 180.9996948242188 Z" stroke="none" fill="#fff"/>
  </g>
</svg>
